<!-- Generated by IcoMoon.io -->
<svg version="1.1" xmlns="http://www.w3.org/2000/svg" width="43" height="32" viewBox="0 0 43 32">
<title>envelope</title>
<path fill="#757575" d="M38.667 0h-34.667c-2.206 0-4 1.794-4 3.999v23.992c0 2.205 1.794 3.999 4 3.999h34.667c2.206 0 4-1.794 4-3.999v-23.992c0-2.205-1.794-3.999-4-3.999zM38.667 2.666c0.181 0 0.353 0.038 0.511 0.103l-17.844 15.46-17.844-15.46c0.158-0.066 0.33-0.103 0.511-0.103h34.667zM38.667 29.323h-34.667c-0.736 0-1.333-0.597-1.333-1.333v-22.405l17.793 15.415c0.251 0.217 0.563 0.325 0.874 0.325s0.622-0.108 0.874-0.325l17.793-15.415v22.405c0 0.735-0.598 1.333-1.333 1.333z"></path>
</svg>
